<?xml version="1.0" encoding="UTF-8" standalone="no"?>
<!DOCTYPE svg PUBLIC "-//W3C//DTD SVG 1.1//EN" "http://www.w3.org/Graphics/SVG/1.1/DTD/svg11.dtd">
<svg width="100%" height="100%" viewBox="0 0 100 100" version="1.1" xmlns="http://www.w3.org/2000/svg" xmlns:xlink="http://www.w3.org/1999/xlink" xml:space="preserve" xmlns:serif="http://www.serif.com/" style="fill-rule:evenodd;clip-rule:evenodd;stroke-linejoin:round;stroke-miterlimit:2;">
    <g transform="matrix(1,0,0,1,-109.016,-49.6595)">
        <g transform="matrix(2.23782,0,0,2.23782,92.5414,39.8239)">
            <path d="M7.362,4.395L7.362,49.024L52.048,49.024L52.048,4.395L7.362,4.395ZM48.908,14.88L45.773,42.286C45.559,44.154 43.959,45.58 42.079,45.58C41.932,45.58 41.785,45.571 41.639,45.554L14.631,42.46C12.769,42.25 11.345,40.656 11.345,38.782C11.345,38.639 11.353,38.496 11.37,38.354L14.504,10.947C14.715,9.082 16.31,7.656 18.188,7.656C18.329,7.656 18.47,7.664 18.61,7.68L45.623,10.774C47.496,10.976 48.932,12.576 48.932,14.46C48.932,14.6 48.924,14.741 48.908,14.88ZM19.171,15.684L36.434,12.44C38.516,12.051 40.55,13.441 40.945,15.522L44.235,33.039C44.28,33.276 44.303,33.517 44.303,33.759C44.303,35.607 42.975,37.208 41.159,37.55L23.925,40.794C21.843,41.183 19.808,39.793 19.414,37.712L16.118,20.195C16.073,19.959 16.051,19.72 16.051,19.48C16.051,17.629 17.381,16.026 19.2,15.684" style="fill:rgb(255,0,0);fill-rule:nonzero;"/>
        </g>
    </g>
</svg>