<?xml version="1.0" encoding="UTF-8" standalone="no"?>
<svg
   width="280"
   zoomAndPan="magnify"
   viewBox="0 0 210 297.749993"
   height="397"
   preserveAspectRatio="xMidYMid meet"
   version="1.0"
   id="svg193"
   sodipodi:docname="A7-Rallyeausweis.svg"
   inkscape:version="1.4 (e7c3feb100, 2024-10-09)"
   xmlns:inkscape="http://www.inkscape.org/namespaces/inkscape"
   xmlns:sodipodi="http://sodipodi.sourceforge.net/DTD/sodipodi-0.dtd"
   xmlns="http://www.w3.org/2000/svg"
   xmlns:svg="http://www.w3.org/2000/svg">
  <sodipodi:namedview
     id="namedview193"
     pagecolor="#ffffff"
     bordercolor="#000000"
     borderopacity="0.25"
     inkscape:showpageshadow="2"
     inkscape:pageopacity="0.0"
     inkscape:pagecheckerboard="0"
     inkscape:deskcolor="#d1d1d1"
     inkscape:zoom="1.9974811"
     inkscape:cx="140.17654"
     inkscape:cy="198.5"
     inkscape:window-width="1920"
     inkscape:window-height="1002"
     inkscape:window-x="0"
     inkscape:window-y="0"
     inkscape:window-maximized="1"
     inkscape:current-layer="svg193" />
  <defs
     id="defs48">
    <g
       id="g1" />
    <clipPath
       id="8c2d260f32">
      <path
         d="M 0.0898438 0 L 209.910156 0 L 209.910156 297.5 L 0.0898438 297.5 Z M 0.0898438 0 "
         clip-rule="nonzero"
         id="path1" />
    </clipPath>
    <clipPath
       id="d4b853a38a">
      <path
         d="M 28.195312 210.28125 L 181.625 210.28125 L 181.625 231.546875 L 28.195312 231.546875 Z M 28.195312 210.28125 "
         clip-rule="nonzero"
         id="path2" />
    </clipPath>
    <clipPath
       id="df2b382b38">
      <path
         d="M 37.9375 210.28125 L 171.828125 210.28125 C 177.207031 210.28125 181.570312 214.640625 181.570312 220.023438 L 181.570312 221.804688 C 181.570312 227.183594 177.207031 231.546875 171.828125 231.546875 L 37.9375 231.546875 C 32.554688 231.546875 28.195312 227.183594 28.195312 221.804688 L 28.195312 220.023438 C 28.195312 214.640625 32.554688 210.28125 37.9375 210.28125 Z M 37.9375 210.28125 "
         clip-rule="nonzero"
         id="path3" />
    </clipPath>
    <clipPath
       id="82b39ec558">
      <path
         d="M 28.195312 255.164062 L 181.625 255.164062 L 181.625 276.429688 L 28.195312 276.429688 Z M 28.195312 255.164062 "
         clip-rule="nonzero"
         id="path4" />
    </clipPath>
    <clipPath
       id="12c1b48486">
      <path
         d="M 37.9375 255.164062 L 171.828125 255.164062 C 177.207031 255.164062 181.570312 259.523438 181.570312 264.90625 L 181.570312 266.6875 C 181.570312 272.066406 177.207031 276.429688 171.828125 276.429688 L 37.9375 276.429688 C 32.554688 276.429688 28.195312 272.066406 28.195312 266.6875 L 28.195312 264.90625 C 28.195312 259.523438 32.554688 255.164062 37.9375 255.164062 Z M 37.9375 255.164062 "
         clip-rule="nonzero"
         id="path5" />
    </clipPath>
    <clipPath
       id="c4eb000570">
      <path
         d="M 169.71875 87 L 174 87 L 174 89 L 169.71875 89 Z M 169.71875 87 "
         clip-rule="nonzero"
         id="path6" />
    </clipPath>
    <clipPath
       id="44156cb6fe">
      <path
         d="M 189 87 L 193.699219 87 L 193.699219 89 L 189 89 Z M 189 87 "
         clip-rule="nonzero"
         id="path7" />
    </clipPath>
    <clipPath
       id="5f79c30c7d">
      <path
         d="M 181 76.460938 L 183 76.460938 L 183 81 L 181 81 Z M 181 76.460938 "
         clip-rule="nonzero"
         id="path8" />
    </clipPath>
    <clipPath
       id="68637ed3f5">
      <path
         d="M 180 104 L 184 104 L 184 104.9375 L 180 104.9375 Z M 180 104 "
         clip-rule="nonzero"
         id="path9" />
    </clipPath>
    <clipPath
       id="2613706af2">
      <path
         d="M 142 186 L 155 186 L 155 197 L 142 197 Z M 142 186 "
         clip-rule="nonzero"
         id="path10" />
    </clipPath>
    <clipPath
       id="86f2f6e78c">
      <path
         d="M 174.855469 142.910156 L 210.203125 165.53125 L 177.082031 217.289062 L 141.734375 194.667969 Z M 174.855469 142.910156 "
         clip-rule="nonzero"
         id="path11" />
    </clipPath>
    <clipPath
       id="b29c17f402">
      <path
         d="M 174.855469 142.910156 L 210.203125 165.53125 L 177.082031 217.289062 L 141.734375 194.667969 Z M 174.855469 142.910156 "
         clip-rule="nonzero"
         id="path12" />
    </clipPath>
    <clipPath
       id="80e7fd5536">
      <path
         d="M 148.886719 183.496094 L 154.878906 187.332031 L 147.566406 198.757812 L 141.574219 194.921875 Z M 148.886719 183.496094 "
         clip-rule="nonzero"
         id="path13" />
    </clipPath>
    <clipPath
       id="2d14c11ed7">
      <path
         d="M 161 173 L 175 173 L 175 184 L 161 184 Z M 161 173 "
         clip-rule="nonzero"
         id="path14" />
    </clipPath>
    <clipPath
       id="098bb40026">
      <path
         d="M 174.855469 142.910156 L 210.203125 165.53125 L 177.082031 217.289062 L 141.734375 194.667969 Z M 174.855469 142.910156 "
         clip-rule="nonzero"
         id="path15" />
    </clipPath>
    <clipPath
       id="54ae9eff68">
      <path
         d="M 174.855469 142.910156 L 210.203125 165.53125 L 177.082031 217.289062 L 141.734375 194.667969 Z M 174.855469 142.910156 "
         clip-rule="nonzero"
         id="path16" />
    </clipPath>
    <clipPath
       id="e63b92f239">
      <path
         d="M 153 188 L 167 188 L 167 197 L 153 197 Z M 153 188 "
         clip-rule="nonzero"
         id="path17" />
    </clipPath>
    <clipPath
       id="d1bdb3476e">
      <path
         d="M 174.855469 142.910156 L 210.203125 165.53125 L 177.082031 217.289062 L 141.734375 194.667969 Z M 174.855469 142.910156 "
         clip-rule="nonzero"
         id="path18" />
    </clipPath>
    <clipPath
       id="cb4d61bf1c">
      <path
         d="M 174.855469 142.910156 L 210.203125 165.53125 L 177.082031 217.289062 L 141.734375 194.667969 Z M 174.855469 142.910156 "
         clip-rule="nonzero"
         id="path19" />
    </clipPath>
    <clipPath
       id="eb4756eb2e">
      <path
         d="M 174 177 L 188 177 L 188 185 L 174 185 Z M 174 177 "
         clip-rule="nonzero"
         id="path20" />
    </clipPath>
    <clipPath
       id="3aeaafbac8">
      <path
         d="M 174.855469 142.910156 L 210.203125 165.53125 L 177.082031 217.289062 L 141.734375 194.667969 Z M 174.855469 142.910156 "
         clip-rule="nonzero"
         id="path21" />
    </clipPath>
    <clipPath
       id="fc53bc5d33">
      <path
         d="M 174.855469 142.910156 L 210.203125 165.53125 L 177.082031 217.289062 L 141.734375 194.667969 Z M 174.855469 142.910156 "
         clip-rule="nonzero"
         id="path22" />
    </clipPath>
    <clipPath
       id="231df59176">
      <path
         d="M 184 161 L 197 161 L 197 172 L 184 172 Z M 184 161 "
         clip-rule="nonzero"
         id="path23" />
    </clipPath>
    <clipPath
       id="8a0c11b1b5">
      <path
         d="M 174.855469 142.910156 L 210.203125 165.53125 L 177.082031 217.289062 L 141.734375 194.667969 Z M 174.855469 142.910156 "
         clip-rule="nonzero"
         id="path24" />
    </clipPath>
    <clipPath
       id="e93ceedfa9">
      <path
         d="M 174.855469 142.910156 L 210.203125 165.53125 L 177.082031 217.289062 L 141.734375 194.667969 Z M 174.855469 142.910156 "
         clip-rule="nonzero"
         id="path25" />
    </clipPath>
    <clipPath
       id="f86487f540">
      <path
         d="M 196 164 L 209.910156 164 L 209.910156 172 L 196 172 Z M 196 164 "
         clip-rule="nonzero"
         id="path26" />
    </clipPath>
    <clipPath
       id="dcab89dd43">
      <path
         d="M 174.855469 142.910156 L 210.203125 165.53125 L 177.082031 217.289062 L 141.734375 194.667969 Z M 174.855469 142.910156 "
         clip-rule="nonzero"
         id="path27" />
    </clipPath>
    <clipPath
       id="8e0c265183">
      <path
         d="M 174.855469 142.910156 L 210.203125 165.53125 L 177.082031 217.289062 L 141.734375 194.667969 Z M 174.855469 142.910156 "
         clip-rule="nonzero"
         id="path28" />
    </clipPath>
    <clipPath
       id="9c240b12ab">
      <path
         d="M 202.171875 160.402344 L 210.160156 165.511719 L 203.445312 176.003906 L 195.457031 170.890625 Z M 202.171875 160.402344 "
         clip-rule="nonzero"
         id="path29" />
    </clipPath>
    <clipPath
       id="9c476dc914">
      <path
         d="M 5.25 171.464844 L 36 171.464844 L 36 203.6875 L 5.25 203.6875 Z M 5.25 171.464844 "
         clip-rule="nonzero"
         id="path30" />
    </clipPath>
    <clipPath
       id="e85be14d4b">
      <path
         d="M 49.480469 63.304688 L 160.671875 63.304688 L 160.671875 174.058594 L 49.480469 174.058594 Z M 49.480469 63.304688 "
         clip-rule="nonzero"
         id="path31" />
    </clipPath>
    <clipPath
       id="8633ede50f">
      <path
         d="M 59.222656 63.304688 L 150.542969 63.304688 C 155.921875 63.304688 160.28125 67.664062 160.28125 73.046875 L 160.28125 164.320312 C 160.28125 169.699219 155.921875 174.058594 150.542969 174.058594 L 59.222656 174.058594 C 53.84375 174.058594 49.480469 169.699219 49.480469 164.320312 L 49.480469 73.046875 C 49.480469 67.664062 53.84375 63.304688 59.222656 63.304688 Z M 59.222656 63.304688 "
         clip-rule="nonzero"
         id="path32" />
    </clipPath>
    <clipPath
       id="f5b80951f0">
      <path
         d="M 0.0898438 90 L 9 90 L 9 103 L 0.0898438 103 Z M 0.0898438 90 "
         clip-rule="nonzero"
         id="path33" />
    </clipPath>
    <clipPath
       id="1da94c035a">
      <path
         d="M -0.785156 60.453125 L 39.78125 71.207031 L 24.035156 130.605469 L -16.527344 119.851562 Z M -0.785156 60.453125 "
         clip-rule="nonzero"
         id="path34" />
    </clipPath>
    <clipPath
       id="03a7b418fb">
      <path
         d="M -0.785156 60.453125 L 39.78125 71.207031 L 24.035156 130.605469 L -16.527344 119.851562 Z M -0.785156 60.453125 "
         clip-rule="nonzero"
         id="path35" />
    </clipPath>
    <clipPath
       id="4f416ef5c7">
      <path
         d="M 0.0898438 107 L 6 107 L 6 118 L 0.0898438 118 Z M 0.0898438 107 "
         clip-rule="nonzero"
         id="path36" />
    </clipPath>
    <clipPath
       id="5efdbdd6c5">
      <path
         d="M -0.785156 60.453125 L 39.78125 71.207031 L 24.035156 130.605469 L -16.527344 119.851562 Z M -0.785156 60.453125 "
         clip-rule="nonzero"
         id="path37" />
    </clipPath>
    <clipPath
       id="36fe7b993f">
      <path
         d="M -0.785156 60.453125 L 39.78125 71.207031 L 24.035156 130.605469 L -16.527344 119.851562 Z M -0.785156 60.453125 "
         clip-rule="nonzero"
         id="path38" />
    </clipPath>
    <clipPath
       id="e97cc6f8f4">
      <path
         d="M 10 89 L 23 89 L 23 100 L 10 100 Z M 10 89 "
         clip-rule="nonzero"
         id="path39" />
    </clipPath>
    <clipPath
       id="b2a969ca63">
      <path
         d="M -0.785156 60.453125 L 39.78125 71.207031 L 24.035156 130.605469 L -16.527344 119.851562 Z M -0.785156 60.453125 "
         clip-rule="nonzero"
         id="path40" />
    </clipPath>
    <clipPath
       id="380b06054b">
      <path
         d="M -0.785156 60.453125 L 39.78125 71.207031 L 24.035156 130.605469 L -16.527344 119.851562 Z M -0.785156 60.453125 "
         clip-rule="nonzero"
         id="path41" />
    </clipPath>
    <clipPath
       id="0787b72416">
      <path
         d="M 16 71 L 27 71 L 27 84 L 16 84 Z M 16 71 "
         clip-rule="nonzero"
         id="path42" />
    </clipPath>
    <clipPath
       id="2f803e2cf7">
      <path
         d="M -0.785156 60.453125 L 39.78125 71.207031 L 24.035156 130.605469 L -16.527344 119.851562 Z M -0.785156 60.453125 "
         clip-rule="nonzero"
         id="path43" />
    </clipPath>
    <clipPath
       id="21b76ed167">
      <path
         d="M -0.785156 60.453125 L 39.78125 71.207031 L 24.035156 130.605469 L -16.527344 119.851562 Z M -0.785156 60.453125 "
         clip-rule="nonzero"
         id="path44" />
    </clipPath>
    <clipPath
       id="825a9c72ab">
      <path
         d="M 27 70 L 40 70 L 40 82 L 27 82 Z M 27 70 "
         clip-rule="nonzero"
         id="path45" />
    </clipPath>
    <clipPath
       id="ebab6d7dee">
      <path
         d="M -0.785156 60.453125 L 39.78125 71.207031 L 24.035156 130.605469 L -16.527344 119.851562 Z M -0.785156 60.453125 "
         clip-rule="nonzero"
         id="path46" />
    </clipPath>
    <clipPath
       id="c920cc5832">
      <path
         d="M -0.785156 60.453125 L 39.78125 71.207031 L 24.035156 130.605469 L -16.527344 119.851562 Z M -0.785156 60.453125 "
         clip-rule="nonzero"
         id="path47" />
    </clipPath>
    <clipPath
       id="5c7478dfef">
      <path
         d="M 30.5625 68.773438 L 39.730469 71.203125 L 36.542969 83.242188 L 27.375 80.8125 Z M 30.5625 68.773438 "
         clip-rule="nonzero"
         id="path48" />
    </clipPath>
  </defs>
  <g
     clip-path="url(#8c2d260f32)"
     id="g50">
    <path
       fill="#ffffff"
       d="M 0.0898438 0 L 209.910156 0 L 209.910156 297.5 L 0.0898438 297.5 Z M 0.0898438 0 "
       fill-opacity="1"
       fill-rule="nonzero"
       id="path49" />
    <path
       fill="#ffc900"
       d="M 0.0898438 0 L 209.910156 0 L 209.910156 297.5 L 0.0898438 297.5 Z M 0.0898438 0 "
       fill-opacity="1"
       fill-rule="nonzero"
       id="path50" />
  </g>
  <g
     clip-path="url(#d4b853a38a)"
     id="g52">
    <g
       clip-path="url(#df2b382b38)"
       id="g51">
      <path
         fill="#ffffff"
         d="M 28.195312 210.28125 L 181.539062 210.28125 L 181.539062 231.546875 L 28.195312 231.546875 Z M 28.195312 210.28125 "
         fill-opacity="1"
         fill-rule="nonzero"
         id="path51" />
    </g>
  </g>
  <g
     clip-path="url(#82b39ec558)"
     id="g54">
    <g
       clip-path="url(#12c1b48486)"
       id="g53">
      <path
         fill="#ffffff"
         d="M 28.195312 255.164062 L 181.539062 255.164062 L 181.539062 276.429688 L 28.195312 276.429688 Z M 28.195312 255.164062 "
         fill-opacity="1"
         fill-rule="nonzero"
         id="path52" />
    </g>
  </g>
  <path
     fill="#ffffff"
     d="M 184.667969 98.898438 L 184.667969 97.996094 C 184.667969 96.410156 185.3125 94.882812 186.4375 93.8125 C 187.84375 92.472656 188.617188 90.664062 188.617188 88.71875 C 188.617188 84.839844 185.460938 81.6875 181.585938 81.6875 C 181.320312 81.6875 181.050781 81.699219 180.785156 81.730469 C 177.425781 82.101562 174.75 84.933594 174.5625 88.320312 C 174.449219 90.363281 175.222656 92.347656 176.6875 93.769531 C 177.839844 94.886719 178.5 96.425781 178.5 97.996094 L 178.5 98.898438 C 178.5 99.859375 179.28125 100.640625 180.242188 100.640625 L 182.925781 100.640625 C 183.886719 100.640625 184.667969 99.859375 184.667969 98.898438 Z M 183.386719 98.898438 C 183.386719 99.152344 183.179688 99.359375 182.925781 99.359375 L 180.242188 99.359375 C 179.988281 99.359375 179.78125 99.152344 179.78125 98.898438 L 179.78125 97.996094 C 179.78125 96.082031 178.980469 94.207031 177.578125 92.847656 C 176.382812 91.6875 175.746094 90.0625 175.839844 88.390625 C 175.992188 85.625 178.179688 83.308594 180.925781 83.003906 C 181.144531 82.980469 181.367188 82.96875 181.585938 82.96875 C 184.757812 82.96875 187.339844 85.546875 187.339844 88.71875 C 187.339844 90.308594 186.703125 91.789062 185.554688 92.886719 C 184.175781 94.195312 183.386719 96.058594 183.386719 97.996094 Z M 183.386719 98.898438 "
     fill-opacity="1"
     fill-rule="nonzero"
     id="path54" />
  <path
     fill="#ffffff"
     d="M 183.667969 101.273438 L 179.5 101.273438 C 179.234375 101.273438 179.019531 101.488281 179.019531 101.75 C 179.019531 102.015625 179.234375 102.230469 179.5 102.230469 L 183.667969 102.230469 C 183.933594 102.230469 184.148438 102.015625 184.148438 101.75 C 184.148438 101.488281 183.933594 101.273438 183.667969 101.273438 Z M 183.667969 101.273438 "
     fill-opacity="1"
     fill-rule="nonzero"
     id="path55" />
  <path
     fill="#ffffff"
     d="M 184.148438 103.269531 C 184.148438 103.003906 183.933594 102.789062 183.667969 102.789062 L 179.5 102.789062 C 179.234375 102.789062 179.019531 103.003906 179.019531 103.269531 C 179.019531 103.535156 179.234375 103.75 179.5 103.75 L 183.667969 103.75 C 183.933594 103.75 184.148438 103.535156 184.148438 103.269531 Z M 184.148438 103.269531 "
     fill-opacity="1"
     fill-rule="nonzero"
     id="path56" />
  <g
     clip-path="url(#c4eb000570)"
     id="g57">
    <path
       fill="#ffffff"
       d="M 170.296875 88.707031 L 173.0625 88.707031 C 173.328125 88.707031 173.542969 88.492188 173.542969 88.230469 C 173.542969 87.964844 173.328125 87.75 173.0625 87.75 L 170.296875 87.75 C 170.03125 87.75 169.816406 87.964844 169.816406 88.230469 C 169.816406 88.492188 170.03125 88.707031 170.296875 88.707031 Z M 170.296875 88.707031 "
       fill-opacity="1"
       fill-rule="nonzero"
       id="path57" />
  </g>
  <g
     clip-path="url(#44156cb6fe)"
     id="g58">
    <path
       fill="#ffffff"
       d="M 193.351562 88.230469 C 193.351562 87.964844 193.136719 87.75 192.871094 87.75 L 190.105469 87.75 C 189.839844 87.75 189.625 87.964844 189.625 88.230469 C 189.625 88.492188 189.839844 88.707031 190.105469 88.707031 L 192.871094 88.707031 C 193.136719 88.707031 193.351562 88.492188 193.351562 88.230469 Z M 193.351562 88.230469 "
       fill-opacity="1"
       fill-rule="nonzero"
       id="path58" />
  </g>
  <g
     clip-path="url(#5f79c30c7d)"
     id="g59">
    <path
       fill="#ffffff"
       d="M 181.105469 76.941406 L 181.105469 79.707031 C 181.105469 79.972656 181.320312 80.1875 181.585938 80.1875 C 181.847656 80.1875 182.0625 79.972656 182.0625 79.707031 L 182.0625 76.941406 C 182.0625 76.675781 181.847656 76.460938 181.585938 76.460938 C 181.320312 76.460938 181.105469 76.675781 181.105469 76.941406 Z M 181.105469 76.941406 "
       fill-opacity="1"
       fill-rule="nonzero"
       id="path59" />
  </g>
  <path
     fill="#ffffff"
     d="M 189.226562 79.90625 L 187.269531 81.863281 C 187.082031 82.050781 187.082031 82.355469 187.269531 82.542969 C 187.363281 82.636719 187.488281 82.683594 187.609375 82.683594 C 187.734375 82.683594 187.855469 82.636719 187.949219 82.542969 L 189.90625 80.585938 C 190.09375 80.398438 190.09375 80.09375 189.90625 79.90625 C 189.71875 79.71875 189.414062 79.71875 189.226562 79.90625 Z M 189.226562 79.90625 "
     fill-opacity="1"
     fill-rule="nonzero"
     id="path60" />
  <path
     fill="#ffffff"
     d="M 175.898438 93.914062 C 175.710938 93.726562 175.40625 93.726562 175.21875 93.914062 L 173.265625 95.871094 C 173.074219 96.058594 173.074219 96.363281 173.265625 96.550781 C 173.359375 96.644531 173.480469 96.691406 173.601562 96.691406 C 173.726562 96.691406 173.847656 96.644531 173.941406 96.550781 L 175.898438 94.59375 C 176.085938 94.40625 176.085938 94.101562 175.898438 93.914062 Z M 175.898438 93.914062 "
     fill-opacity="1"
     fill-rule="nonzero"
     id="path61" />
  <path
     fill="#ffffff"
     d="M 175.21875 82.542969 C 175.3125 82.636719 175.4375 82.683594 175.558594 82.683594 C 175.683594 82.683594 175.804688 82.636719 175.898438 82.542969 C 176.085938 82.355469 176.085938 82.050781 175.898438 81.863281 L 173.941406 79.90625 C 173.753906 79.71875 173.453125 79.71875 173.265625 79.90625 C 173.078125 80.09375 173.078125 80.398438 173.265625 80.585938 Z M 175.21875 82.542969 "
     fill-opacity="1"
     fill-rule="nonzero"
     id="path62" />
  <path
     fill="#ffffff"
     d="M 189.226562 96.550781 C 189.320312 96.644531 189.441406 96.691406 189.566406 96.691406 C 189.6875 96.691406 189.8125 96.644531 189.90625 96.550781 C 190.09375 96.363281 190.09375 96.058594 189.90625 95.871094 L 187.949219 93.914062 C 187.761719 93.726562 187.457031 93.726562 187.269531 93.914062 C 187.082031 94.101562 187.082031 94.40625 187.269531 94.59375 Z M 189.226562 96.550781 "
     fill-opacity="1"
     fill-rule="nonzero"
     id="path63" />
  <g
     clip-path="url(#68637ed3f5)"
     id="g64">
    <path
       fill="#ffffff"
       d="M 183.105469 104.785156 C 183.105469 104.519531 182.890625 104.304688 182.625 104.304688 L 180.542969 104.304688 C 180.277344 104.304688 180.0625 104.519531 180.0625 104.785156 C 180.0625 105.050781 180.277344 105.265625 180.542969 105.265625 L 182.625 105.265625 C 182.890625 105.265625 183.105469 105.050781 183.105469 104.785156 Z M 183.105469 104.785156 "
       fill-opacity="1"
       fill-rule="nonzero"
       id="path64" />
  </g>
  <g
     clip-path="url(#2613706af2)"
     id="g68">
    <g
       clip-path="url(#86f2f6e78c)"
       id="g67">
      <g
         clip-path="url(#b29c17f402)"
         id="g66">
        <g
           clip-path="url(#80e7fd5536)"
           id="g65">
          <path
             fill="#ffffff"
             d="M 145.402344 194.882812 C 145.425781 194.867188 145.449219 194.851562 145.449219 194.820312 C 145.453125 194.78125 145.421875 194.738281 145.390625 194.707031 C 144.804688 194.054688 144.273438 193.347656 143.804688 192.609375 C 143.757812 192.535156 143.710938 192.457031 143.636719 192.417969 C 143.5625 192.378906 142.632812 193.476562 142.183594 193.992188 C 142.125 194.058594 142.066406 194.128906 142.046875 194.226562 C 142.015625 194.394531 142.117188 194.585938 142.222656 194.753906 C 142.5 195.199219 142.835938 195.605469 143.21875 195.957031 C 143.265625 196.003906 143.320312 196.050781 143.375 196.0625 C 143.441406 196.082031 143.503906 196.050781 143.554688 196.023438 C 144.195312 195.683594 144.8125 195.300781 145.402344 194.882812 Z M 146.164062 194.320312 C 145.472656 193.558594 144.839844 192.742188 144.320312 191.910156 C 144.285156 191.855469 144.285156 191.785156 144.324219 191.746094 C 145.484375 190.550781 146.578125 189.101562 148.070312 188.253906 C 148.992188 187.726562 149.941406 187.230469 150.957031 186.917969 C 151.84375 186.644531 153.160156 186.285156 153.992188 186.878906 C 155.015625 187.609375 153.003906 189.988281 152.328125 190.640625 C 151.371094 191.558594 150.378906 192.390625 149.101562 192.835938 C 148.960938 192.882812 148.820312 192.933594 148.683594 192.996094 C 148.167969 193.21875 147.671875 193.519531 147.183594 193.796875 C 146.917969 193.949219 146.574219 194.191406 146.320312 194.359375 C 146.273438 194.390625 146.207031 194.363281 146.164062 194.320312 "
             fill-opacity="1"
             fill-rule="nonzero"
             id="path65" />
        </g>
      </g>
    </g>
  </g>
  <g
     clip-path="url(#2d14c11ed7)"
     id="g71">
    <g
       clip-path="url(#098bb40026)"
       id="g70">
      <g
         clip-path="url(#54ae9eff68)"
         id="g69">
        <path
           fill="#ffffff"
           d="M 165.28125 181.894531 C 165.304688 181.878906 165.328125 181.863281 165.328125 181.832031 C 165.332031 181.792969 165.300781 181.753906 165.269531 181.71875 C 164.683594 181.066406 164.152344 180.363281 163.683594 179.621094 C 163.636719 179.546875 163.585938 179.46875 163.515625 179.429688 C 163.441406 179.390625 162.507812 180.488281 162.0625 181.003906 C 162.003906 181.070312 161.945312 181.140625 161.925781 181.238281 C 161.894531 181.40625 161.996094 181.601562 162.101562 181.765625 C 162.378906 182.210938 162.714844 182.617188 163.097656 182.972656 C 163.144531 183.015625 163.195312 183.0625 163.253906 183.078125 C 163.320312 183.09375 163.378906 183.066406 163.433594 183.035156 C 164.074219 182.695312 164.691406 182.3125 165.28125 181.894531 Z M 166.042969 181.332031 C 165.351562 180.570312 164.71875 179.753906 164.199219 178.921875 C 164.164062 178.867188 164.164062 178.796875 164.203125 178.757812 C 165.359375 177.5625 166.457031 176.113281 167.945312 175.265625 C 168.867188 174.742188 169.816406 174.242188 170.835938 173.929688 C 171.722656 173.65625 173.039062 173.300781 173.871094 173.890625 C 174.894531 174.621094 172.882812 177 172.203125 177.652344 C 171.25 178.570312 170.253906 179.402344 168.980469 179.847656 C 168.839844 179.898438 168.699219 179.949219 168.5625 180.007812 C 168.046875 180.230469 167.550781 180.535156 167.0625 180.808594 C 166.796875 180.960938 166.453125 181.203125 166.199219 181.375 C 166.152344 181.40625 166.085938 181.378906 166.042969 181.332031 "
           fill-opacity="1"
           fill-rule="nonzero"
           id="path68" />
      </g>
    </g>
  </g>
  <g
     clip-path="url(#e63b92f239)"
     id="g74">
    <g
       clip-path="url(#d1bdb3476e)"
       id="g73">
      <g
         clip-path="url(#cb4d61bf1c)"
         id="g72">
        <path
           fill="#ffffff"
           d="M 153.453125 193.878906 C 153.402344 193.910156 153.347656 193.945312 153.324219 194.011719 C 153.308594 194.066406 153.320312 194.136719 153.332031 194.199219 C 153.433594 194.710938 153.605469 195.210938 153.835938 195.679688 C 153.921875 195.855469 154.035156 196.042969 154.191406 196.105469 C 154.285156 196.140625 154.378906 196.125 154.464844 196.113281 C 155.140625 196.003906 156.5625 195.785156 156.566406 195.703125 C 156.570312 195.621094 156.53125 195.535156 156.492188 195.457031 C 156.109375 194.671875 155.789062 193.847656 155.539062 193.007812 C 155.527344 192.964844 155.507812 192.914062 155.472656 192.898438 C 155.445312 192.882812 155.421875 192.894531 155.394531 192.90625 C 154.730469 193.1875 154.082031 193.511719 153.453125 193.878906 Z M 156.320312 192.398438 C 156.597656 192.269531 156.984375 192.105469 157.253906 191.957031 C 157.746094 191.6875 158.261719 191.425781 158.722656 191.105469 C 158.847656 191.019531 158.964844 190.925781 159.078125 190.832031 C 160.128906 189.980469 161.355469 189.570312 162.640625 189.238281 C 163.550781 189.003906 166.632812 188.539062 166.714844 189.792969 C 166.785156 190.8125 165.789062 191.746094 165.089844 192.359375 C 164.289062 193.058594 163.367188 193.605469 162.4375 194.117188 C 160.933594 194.941406 159.125 195.113281 157.5 195.472656 C 157.445312 195.484375 157.386719 195.445312 157.359375 195.386719 C 156.921875 194.507812 156.558594 193.542969 156.273438 192.550781 C 156.257812 192.492188 156.269531 192.421875 156.320312 192.398438 "
           fill-opacity="1"
           fill-rule="nonzero"
           id="path71" />
      </g>
    </g>
  </g>
  <g
     clip-path="url(#eb4756eb2e)"
     id="g77">
    <g
       clip-path="url(#3aeaafbac8)"
       id="g76">
      <g
         clip-path="url(#fc53bc5d33)"
         id="g75">
        <path
           fill="#ffffff"
           d="M 174.171875 182.15625 C 174.121094 182.1875 174.066406 182.222656 174.042969 182.285156 C 174.027344 182.34375 174.039062 182.414062 174.050781 182.476562 C 174.152344 182.984375 174.320312 183.488281 174.554688 183.957031 C 174.640625 184.132812 174.753906 184.320312 174.910156 184.382812 C 175.003906 184.417969 175.09375 184.402344 175.183594 184.390625 C 175.855469 184.28125 177.28125 184.0625 177.285156 183.980469 C 177.289062 183.898438 177.25 183.8125 177.210938 183.734375 C 176.824219 182.949219 176.503906 182.125 176.257812 181.285156 C 176.246094 181.242188 176.226562 181.191406 176.191406 181.175781 C 176.164062 181.160156 176.136719 181.171875 176.113281 181.179688 C 175.449219 181.464844 174.800781 181.789062 174.171875 182.15625 Z M 177.039062 180.675781 C 177.316406 180.546875 177.703125 180.382812 177.972656 180.234375 C 178.464844 179.964844 178.980469 179.703125 179.441406 179.378906 C 179.566406 179.296875 179.683594 179.203125 179.796875 179.109375 C 180.847656 178.257812 182.074219 177.847656 183.355469 177.515625 C 184.269531 177.277344 187.347656 176.816406 187.433594 178.070312 C 187.503906 179.089844 186.507812 180.023438 185.808594 180.632812 C 185.007812 181.335938 184.085938 181.882812 183.15625 182.390625 C 181.652344 183.214844 179.84375 183.386719 178.21875 183.746094 C 178.164062 183.757812 178.105469 183.71875 178.074219 183.664062 C 177.640625 182.785156 177.277344 181.816406 176.992188 180.828125 C 176.976562 180.769531 176.988281 180.699219 177.039062 180.675781 "
           fill-opacity="1"
           fill-rule="nonzero"
           id="path74" />
      </g>
    </g>
  </g>
  <g
     clip-path="url(#231df59176)"
     id="g80">
    <g
       clip-path="url(#8a0c11b1b5)"
       id="g79">
      <g
         clip-path="url(#e93ceedfa9)"
         id="g78">
        <path
           fill="#ffffff"
           d="M 187.820312 169.835938 C 187.839844 169.820312 187.863281 169.804688 187.867188 169.773438 C 187.867188 169.734375 187.835938 169.695312 187.804688 169.660156 C 187.222656 169.007812 186.6875 168.304688 186.222656 167.5625 C 186.175781 167.488281 186.125 167.410156 186.050781 167.371094 C 185.980469 167.332031 185.046875 168.429688 184.601562 168.945312 C 184.542969 169.011719 184.480469 169.082031 184.464844 169.179688 C 184.429688 169.347656 184.53125 169.542969 184.636719 169.707031 C 184.914062 170.152344 185.253906 170.558594 185.632812 170.914062 C 185.679688 170.957031 185.734375 171.003906 185.792969 171.019531 C 185.859375 171.035156 185.917969 171.007812 185.96875 170.976562 C 186.613281 170.636719 187.230469 170.253906 187.820312 169.835938 Z M 188.578125 169.273438 C 187.886719 168.511719 187.253906 167.695312 186.734375 166.863281 C 186.703125 166.808594 186.699219 166.738281 186.738281 166.699219 C 187.898438 165.503906 188.992188 164.054688 190.484375 163.207031 C 191.40625 162.683594 192.355469 162.183594 193.371094 161.871094 C 194.257812 161.597656 195.574219 161.242188 196.40625 161.832031 C 197.429688 162.5625 195.421875 164.941406 194.742188 165.59375 C 193.785156 166.511719 192.792969 167.34375 191.515625 167.789062 C 191.375 167.839844 191.234375 167.890625 191.097656 167.949219 C 190.582031 168.171875 190.085938 168.476562 189.601562 168.75 C 189.332031 168.902344 188.988281 169.144531 188.734375 169.316406 C 188.6875 169.347656 188.621094 169.320312 188.578125 169.273438 "
           fill-opacity="1"
           fill-rule="nonzero"
           id="path77" />
      </g>
    </g>
  </g>
  <g
     clip-path="url(#f86487f540)"
     id="g84">
    <g
       clip-path="url(#dcab89dd43)"
       id="g83">
      <g
         clip-path="url(#8e0c265183)"
         id="g82">
        <g
           clip-path="url(#9c240b12ab)"
           id="g81">
          <path
             fill="#ffffff"
             d="M 196.460938 169.644531 C 196.410156 169.675781 196.355469 169.710938 196.332031 169.777344 C 196.316406 169.832031 196.328125 169.902344 196.339844 169.96875 C 196.441406 170.476562 196.613281 170.976562 196.84375 171.445312 C 196.929688 171.625 197.042969 171.8125 197.199219 171.871094 C 197.292969 171.90625 197.382812 171.894531 197.472656 171.878906 C 198.148438 171.769531 199.570312 171.550781 199.574219 171.46875 C 199.578125 171.386719 199.539062 171.304688 199.5 171.226562 C 199.113281 170.4375 198.792969 169.613281 198.546875 168.773438 C 198.535156 168.730469 198.515625 168.683594 198.480469 168.664062 C 198.453125 168.652344 198.425781 168.660156 198.402344 168.671875 C 197.738281 168.953125 197.089844 169.277344 196.460938 169.644531 Z M 199.328125 168.164062 C 199.605469 168.039062 199.992188 167.871094 200.261719 167.726562 C 200.753906 167.453125 201.273438 167.191406 201.730469 166.871094 C 201.855469 166.785156 201.972656 166.691406 202.085938 166.597656 C 203.136719 165.746094 204.363281 165.335938 205.648438 165.003906 C 206.558594 164.769531 209.636719 164.308594 209.722656 165.5625 C 209.792969 166.578125 208.796875 167.515625 208.097656 168.125 C 207.296875 168.828125 206.375 169.371094 205.445312 169.882812 C 203.941406 170.707031 202.132812 170.878906 200.507812 171.238281 C 200.453125 171.25 200.394531 171.210938 200.367188 171.15625 C 199.929688 170.273438 199.566406 169.308594 199.28125 168.320312 C 199.265625 168.261719 199.277344 168.1875 199.328125 168.164062 "
             fill-opacity="1"
             fill-rule="nonzero"
             id="path80" />
        </g>
      </g>
    </g>
  </g>
  <g
     clip-path="url(#9c476dc914)"
     id="g85">
    <path
       fill="#ffffff"
       d="M 32.429688 188.796875 C 30.492188 191.175781 27.621094 192.539062 24.550781 192.539062 C 22.230469 192.539062 19.957031 191.730469 18.152344 190.265625 C 13.8125 186.734375 13.152344 180.328125 16.683594 175.988281 C 18.621094 173.605469 21.492188 172.242188 24.5625 172.242188 C 26.882812 172.242188 29.15625 173.050781 30.960938 174.519531 C 35.300781 178.046875 35.960938 184.453125 32.429688 188.796875 Z M 14.761719 194.101562 L 14.058594 193.480469 L 16.929688 190.214844 C 17.152344 190.433594 17.386719 190.640625 17.628906 190.84375 Z M 14.535156 195.707031 L 8.261719 202.804688 C 8.15625 202.929688 7.996094 203 7.832031 203 C 7.691406 203 7.558594 202.949219 7.453125 202.855469 L 6.246094 201.792969 C 6.128906 201.691406 6.0625 201.546875 6.050781 201.394531 C 6.042969 201.242188 6.09375 201.09375 6.195312 200.980469 L 12.464844 193.878906 C 12.574219 193.757812 12.734375 193.6875 12.898438 193.6875 C 13.039062 193.6875 13.171875 193.738281 13.277344 193.832031 L 14.484375 194.894531 C 14.597656 194.996094 14.667969 195.136719 14.679688 195.292969 C 14.6875 195.445312 14.636719 195.59375 14.535156 195.707031 Z M 31.453125 173.914062 C 29.511719 172.332031 27.0625 171.464844 24.5625 171.464844 C 21.257812 171.464844 18.164062 172.933594 16.078125 175.496094 C 12.652344 179.707031 12.890625 185.71875 16.390625 189.652344 L 13.429688 193.019531 C 13.261719 192.945312 13.082031 192.90625 12.898438 192.90625 C 12.507812 192.90625 12.140625 193.074219 11.882812 193.363281 L 5.609375 200.460938 C 5.371094 200.734375 5.25 201.082031 5.273438 201.445312 C 5.296875 201.804688 5.457031 202.136719 5.730469 202.375 L 6.933594 203.441406 C 7.183594 203.660156 7.5 203.78125 7.832031 203.78125 C 8.222656 203.78125 8.589844 203.613281 8.847656 203.320312 L 15.117188 196.222656 C 15.359375 195.953125 15.476562 195.605469 15.457031 195.242188 C 15.441406 195.042969 15.386719 194.851562 15.292969 194.679688 L 18.253906 191.3125 C 20.089844 192.609375 22.296875 193.320312 24.550781 193.320312 C 27.855469 193.320312 30.949219 191.851562 33.035156 189.285156 C 36.835938 184.609375 36.125 177.714844 31.453125 173.914062 "
       fill-opacity="1"
       fill-rule="nonzero"
       id="path84" />
  </g>
  <path
     fill="#ffffff"
     d="M 30.890625 187.542969 C 29.332031 189.457031 27.023438 190.554688 24.550781 190.554688 C 22.683594 190.554688 20.855469 189.90625 19.40625 188.722656 C 17.714844 187.347656 16.660156 185.394531 16.433594 183.226562 C 16.210938 181.058594 16.847656 178.929688 18.222656 177.238281 C 19.78125 175.324219 22.089844 174.226562 24.5625 174.226562 C 26.429688 174.226562 28.257812 174.875 29.710938 176.058594 C 31.402344 177.433594 32.457031 179.386719 32.679688 181.554688 C 32.902344 183.722656 32.265625 185.851562 30.890625 187.542969 Z M 33.453125 181.476562 C 33.210938 179.097656 32.054688 176.960938 30.199219 175.453125 C 28.609375 174.160156 26.609375 173.445312 24.5625 173.445312 C 21.855469 173.445312 19.324219 174.648438 17.617188 176.746094 C 16.109375 178.601562 15.414062 180.929688 15.660156 183.304688 C 15.90625 185.683594 17.058594 187.820312 18.914062 189.328125 C 20.503906 190.621094 22.503906 191.335938 24.550781 191.335938 C 27.257812 191.335938 29.789062 190.132812 31.496094 188.035156 C 33.003906 186.179688 33.699219 183.851562 33.453125 181.476562 "
     fill-opacity="1"
     fill-rule="nonzero"
     id="path85" />
  <g
     fill="#ffffff"
     fill-opacity="1"
     id="g90">
    <g
       transform="translate(35.415524, 207.532157)"
       id="g89">
      <g
         id="g88">
        <path
           d="M 2.296875 0 L 0.921875 0 L 0.921875 -7.125 L 2.546875 -7.125 L 5.40625 -2.53125 L 5.53125 -2.546875 L 5.53125 -7.125 L 6.890625 -7.125 L 6.890625 0 L 5.4375 0 L 2.40625 -4.90625 L 2.296875 -4.890625 Z M 2.296875 0 "
           id="path87" />
      </g>
    </g>
  </g>
  <g
     fill="#ffffff"
     fill-opacity="1"
     id="g93">
    <g
       transform="translate(43.233056, 207.532157)"
       id="g92">
      <g
         id="g91">
        <path
           d="M 6.84375 0 L 5.359375 0 L 4.828125 -1.640625 L 2.09375 -1.640625 L 1.5625 0 L 0.109375 0 L 2.5625 -7.125 L 4.375 -7.125 Z M 3.390625 -5.640625 L 2.46875 -2.828125 L 4.4375 -2.828125 L 3.515625 -5.640625 Z M 3.390625 -5.640625 "
           id="path90" />
      </g>
    </g>
  </g>
  <g
     fill="#ffffff"
     fill-opacity="1"
     id="g96">
    <g
       transform="translate(50.182516, 207.532157)"
       id="g95">
      <g
         id="g94">
        <path
           d="M 2.21875 0 L 0.921875 0 L 0.921875 -7.125 L 2.765625 -7.125 L 4.578125 -1.890625 L 4.671875 -1.890625 L 6.46875 -7.125 L 8.265625 -7.125 L 8.265625 0 L 6.9375 0 L 6.9375 -4.703125 L 6.8125 -4.734375 L 5.15625 0 L 3.984375 0 L 2.34375 -4.734375 L 2.21875 -4.703125 Z M 2.21875 0 "
           id="path93" />
      </g>
    </g>
  </g>
  <g
     fill="#ffffff"
     fill-opacity="1"
     id="g99">
    <g
       transform="translate(59.385063, 207.532157)"
       id="g98">
      <g
         id="g97">
        <path
           d="M 2.328125 -3.125 L 2.328125 -1.1875 L 5.734375 -1.1875 L 5.734375 0 L 0.921875 0 L 0.921875 -7.125 L 5.65625 -7.125 L 5.65625 -5.953125 L 2.328125 -5.953125 L 2.328125 -4.28125 L 5.234375 -4.28125 L 5.234375 -3.125 Z M 2.328125 -3.125 "
           id="path96" />
      </g>
    </g>
  </g>
  <g
     fill="#ffffff"
     fill-opacity="1"
     id="g102">
    <g
       transform="translate(36.147331, 252.27808)"
       id="g101">
      <g
         id="g100">
        <path
           d="M 0.921875 0 L 0.921875 -7.125 L 3.96875 -7.125 C 4.40625 -7.125 4.773438 -7.054688 5.078125 -6.921875 C 5.378906 -6.785156 5.609375 -6.585938 5.765625 -6.328125 C 5.921875 -6.078125 6 -5.773438 6 -5.421875 C 6 -5.109375 5.921875 -4.832031 5.765625 -4.59375 C 5.617188 -4.351562 5.40625 -4.160156 5.125 -4.015625 L 5.125 -3.90625 C 5.570312 -3.789062 5.914062 -3.578125 6.15625 -3.265625 C 6.394531 -2.960938 6.515625 -2.585938 6.515625 -2.140625 C 6.515625 -1.453125 6.3125 -0.921875 5.90625 -0.546875 C 5.5 -0.179688 4.890625 0 4.078125 0 Z M 3.671875 -4.28125 C 4.328125 -4.28125 4.65625 -4.578125 4.65625 -5.171875 C 4.65625 -5.472656 4.570312 -5.695312 4.40625 -5.84375 C 4.25 -5.988281 4.003906 -6.0625 3.671875 -6.0625 L 2.328125 -6.0625 L 2.328125 -4.28125 Z M 3.9375 -1.109375 C 4.707031 -1.109375 5.09375 -1.460938 5.09375 -2.171875 C 5.09375 -2.878906 4.707031 -3.234375 3.9375 -3.234375 L 2.328125 -3.234375 L 2.328125 -1.109375 Z M 3.9375 -1.109375 "
           id="path99" />
      </g>
    </g>
  </g>
  <g
     fill="#ffffff"
     fill-opacity="1"
     id="g105">
    <g
       transform="translate(43.12117, 252.27808)"
       id="g104">
      <g
         id="g103">
        <path
           d="M 2.328125 -3.125 L 2.328125 -1.1875 L 5.734375 -1.1875 L 5.734375 0 L 0.921875 0 L 0.921875 -7.125 L 5.65625 -7.125 L 5.65625 -5.953125 L 2.328125 -5.953125 L 2.328125 -4.28125 L 5.234375 -4.28125 L 5.234375 -3.125 Z M 2.328125 -3.125 "
           id="path102" />
      </g>
    </g>
  </g>
  <g
     fill="#ffffff"
     fill-opacity="1"
     id="g108">
    <g
       transform="translate(49.251326, 252.27808)"
       id="g107">
      <g
         id="g106">
        <path
           d="M 3.15625 0.109375 C 2.664062 0.109375 2.226562 0.046875 1.84375 -0.078125 C 1.457031 -0.203125 1.132812 -0.363281 0.875 -0.5625 C 0.625 -0.757812 0.425781 -0.976562 0.28125 -1.21875 L 1.0625 -2.15625 L 1.1875 -2.15625 C 1.394531 -1.84375 1.664062 -1.585938 2 -1.390625 C 2.332031 -1.203125 2.71875 -1.109375 3.15625 -1.109375 C 3.53125 -1.109375 3.8125 -1.1875 4 -1.34375 C 4.195312 -1.507812 4.296875 -1.734375 4.296875 -2.015625 C 4.296875 -2.179688 4.265625 -2.320312 4.203125 -2.4375 C 4.140625 -2.550781 4.035156 -2.648438 3.890625 -2.734375 C 3.753906 -2.816406 3.5625 -2.882812 3.3125 -2.9375 L 2.40625 -3.15625 C 1.757812 -3.300781 1.28125 -3.539062 0.96875 -3.875 C 0.65625 -4.21875 0.5 -4.660156 0.5 -5.203125 C 0.5 -5.609375 0.597656 -5.960938 0.796875 -6.265625 C 1.003906 -6.566406 1.300781 -6.800781 1.6875 -6.96875 C 2.070312 -7.144531 2.53125 -7.234375 3.0625 -7.234375 C 3.613281 -7.234375 4.082031 -7.160156 4.46875 -7.015625 C 4.863281 -6.867188 5.195312 -6.644531 5.46875 -6.34375 L 4.765625 -5.390625 L 4.65625 -5.390625 C 4.445312 -5.597656 4.210938 -5.753906 3.953125 -5.859375 C 3.691406 -5.972656 3.394531 -6.03125 3.0625 -6.03125 C 2.675781 -6.03125 2.378906 -5.957031 2.171875 -5.8125 C 1.972656 -5.675781 1.875 -5.488281 1.875 -5.25 C 1.875 -5.03125 1.945312 -4.851562 2.09375 -4.71875 C 2.238281 -4.582031 2.484375 -4.476562 2.828125 -4.40625 L 3.765625 -4.21875 C 4.453125 -4.070312 4.953125 -3.820312 5.265625 -3.46875 C 5.578125 -3.113281 5.734375 -2.65625 5.734375 -2.09375 C 5.734375 -1.65625 5.632812 -1.269531 5.4375 -0.9375 C 5.25 -0.601562 4.960938 -0.34375 4.578125 -0.15625 C 4.191406 0.0195312 3.71875 0.109375 3.15625 0.109375 Z M 3.15625 0.109375 "
           id="path105" />
      </g>
    </g>
  </g>
  <g
     fill="#ffffff"
     fill-opacity="1"
     id="g111">
    <g
       transform="translate(55.376599, 252.27808)"
       id="g110">
      <g
         id="g109">
        <path
           d="M 3.890625 0.109375 C 3.234375 0.109375 2.65625 -0.0234375 2.15625 -0.296875 C 1.65625 -0.566406 1.265625 -0.972656 0.984375 -1.515625 C 0.703125 -2.066406 0.5625 -2.75 0.5625 -3.5625 C 0.5625 -4.375 0.703125 -5.054688 0.984375 -5.609375 C 1.265625 -6.160156 1.65625 -6.566406 2.15625 -6.828125 C 2.65625 -7.097656 3.234375 -7.234375 3.890625 -7.234375 C 4.535156 -7.234375 5.109375 -7.097656 5.609375 -6.828125 C 6.109375 -6.566406 6.5 -6.160156 6.78125 -5.609375 C 7.0625 -5.054688 7.203125 -4.375 7.203125 -3.5625 C 7.203125 -2.75 7.0625 -2.066406 6.78125 -1.515625 C 6.5 -0.960938 6.109375 -0.550781 5.609375 -0.28125 C 5.109375 -0.0195312 4.535156 0.109375 3.890625 0.109375 Z M 3.890625 -1.125 C 4.492188 -1.125 4.953125 -1.316406 5.265625 -1.703125 C 5.585938 -2.085938 5.75 -2.707031 5.75 -3.5625 C 5.75 -4.414062 5.585938 -5.035156 5.265625 -5.421875 C 4.953125 -5.816406 4.492188 -6.015625 3.890625 -6.015625 C 3.273438 -6.015625 2.804688 -5.816406 2.484375 -5.421875 C 2.171875 -5.035156 2.015625 -4.414062 2.015625 -3.5625 C 2.015625 -2.707031 2.171875 -2.085938 2.484375 -1.703125 C 2.804688 -1.316406 3.273438 -1.125 3.890625 -1.125 Z M 3.890625 -1.125 "
           id="path108" />
      </g>
    </g>
  </g>
  <g
     fill="#ffffff"
     fill-opacity="1"
     id="g114">
    <g
       transform="translate(63.145364, 252.27808)"
       id="g113">
      <g
         id="g112">
        <path
           d="M 2.296875 0 L 0.921875 0 L 0.921875 -7.125 L 2.546875 -7.125 L 5.40625 -2.53125 L 5.53125 -2.546875 L 5.53125 -7.125 L 6.890625 -7.125 L 6.890625 0 L 5.4375 0 L 2.40625 -4.90625 L 2.296875 -4.890625 Z M 2.296875 0 "
           id="path111" />
      </g>
    </g>
  </g>
  <g
     fill="#ffffff"
     fill-opacity="1"
     id="g117">
    <g
       transform="translate(70.962896, 252.27808)"
       id="g116">
      <g
         id="g115">
        <path
           d="M 3.484375 -7.125 C 4.640625 -7.125 5.519531 -6.820312 6.125 -6.21875 C 6.738281 -5.625 7.046875 -4.738281 7.046875 -3.5625 C 7.046875 -2.382812 6.738281 -1.492188 6.125 -0.890625 C 5.519531 -0.296875 4.640625 0 3.484375 0 L 0.921875 0 L 0.921875 -7.125 Z M 3.40625 -1.1875 C 4.144531 -1.1875 4.695312 -1.375 5.0625 -1.75 C 5.425781 -2.125 5.609375 -2.726562 5.609375 -3.5625 C 5.609375 -4.394531 5.425781 -5 5.0625 -5.375 C 4.695312 -5.75 4.144531 -5.9375 3.40625 -5.9375 L 2.328125 -5.9375 L 2.328125 -1.1875 Z M 3.40625 -1.1875 "
           id="path114" />
      </g>
    </g>
  </g>
  <g
     fill="#ffffff"
     fill-opacity="1"
     id="g120">
    <g
       transform="translate(78.585356, 252.27808)"
       id="g119">
      <g
         id="g118">
        <path
           d="M 2.328125 -3.125 L 2.328125 -1.1875 L 5.734375 -1.1875 L 5.734375 0 L 0.921875 0 L 0.921875 -7.125 L 5.65625 -7.125 L 5.65625 -5.953125 L 2.328125 -5.953125 L 2.328125 -4.28125 L 5.234375 -4.28125 L 5.234375 -3.125 Z M 2.328125 -3.125 "
           id="path117" />
      </g>
    </g>
  </g>
  <g
     fill="#ffffff"
     fill-opacity="1"
     id="g123">
    <g
       transform="translate(84.715512, 252.27808)"
       id="g122">
      <g
         id="g121">
        <path
           d="M 0.921875 0 L 0.921875 -7.125 L 3.78125 -7.125 C 4.519531 -7.125 5.078125 -6.953125 5.453125 -6.609375 C 5.828125 -6.273438 6.015625 -5.8125 6.015625 -5.21875 C 6.015625 -4.78125 5.90625 -4.421875 5.6875 -4.140625 C 5.46875 -3.867188 5.140625 -3.660156 4.703125 -3.515625 L 4.703125 -3.40625 C 4.929688 -3.3125 5.113281 -3.164062 5.25 -2.96875 C 5.382812 -2.78125 5.515625 -2.5 5.640625 -2.125 L 6.359375 0 L 4.90625 0 L 4.21875 -2.125 C 4.144531 -2.34375 4.0625 -2.507812 3.96875 -2.625 C 3.882812 -2.75 3.769531 -2.835938 3.625 -2.890625 C 3.488281 -2.941406 3.3125 -2.96875 3.09375 -2.96875 L 2.328125 -2.96875 L 2.328125 0 Z M 3.625 -4.078125 C 4.300781 -4.078125 4.640625 -4.398438 4.640625 -5.046875 C 4.640625 -5.691406 4.300781 -6.015625 3.625 -6.015625 L 2.328125 -6.015625 L 2.328125 -4.078125 Z M 3.625 -4.078125 "
           id="path120" />
      </g>
    </g>
  </g>
  <g
     fill="#ffffff"
     fill-opacity="1"
     id="g126">
    <g
       transform="translate(91.382117, 252.27808)"
       id="g125">
      <g
         id="g124">
        <path
           d="M 2.328125 -3.125 L 2.328125 -1.1875 L 5.734375 -1.1875 L 5.734375 0 L 0.921875 0 L 0.921875 -7.125 L 5.65625 -7.125 L 5.65625 -5.953125 L 2.328125 -5.953125 L 2.328125 -4.28125 L 5.234375 -4.28125 L 5.234375 -3.125 Z M 2.328125 -3.125 "
           id="path123" />
      </g>
    </g>
  </g>
  <g
     fill="#ffffff"
     fill-opacity="1"
     id="g129">
    <g
       transform="translate(97.512273, 252.27808)"
       id="g128">
      <g
         id="g127" />
    </g>
  </g>
  <g
     fill="#ffffff"
     fill-opacity="1"
     id="g132">
    <g
       transform="translate(99.867778, 252.27808)"
       id="g131">
      <g
         id="g130">
        <path
           d="M 5.453125 -7.125 L 5.453125 -5.953125 L 2.328125 -5.953125 L 2.328125 -4.0625 L 5.15625 -4.0625 L 5.15625 -2.890625 L 2.328125 -2.890625 L 2.328125 0 L 0.921875 0 L 0.921875 -7.125 Z M 5.453125 -7.125 "
           id="path129" />
      </g>
    </g>
  </g>
  <g
     fill="#ffffff"
     fill-opacity="1"
     id="g135">
    <g
       transform="translate(105.632168, 252.27808)"
       id="g134">
      <g
         id="g133">
        <path
           d="M 6.84375 0 L 5.359375 0 L 4.828125 -1.640625 L 2.09375 -1.640625 L 1.5625 0 L 0.109375 0 L 2.5625 -7.125 L 4.375 -7.125 Z M 3.390625 -5.640625 L 2.46875 -2.828125 L 4.4375 -2.828125 L 3.515625 -5.640625 Z M 2.546875 -7.6875 C 2.335938 -7.6875 2.164062 -7.75 2.03125 -7.875 C 1.90625 -8 1.84375 -8.160156 1.84375 -8.359375 C 1.84375 -8.546875 1.90625 -8.703125 2.03125 -8.828125 C 2.164062 -8.960938 2.335938 -9.03125 2.546875 -9.03125 C 2.765625 -9.03125 2.9375 -8.96875 3.0625 -8.84375 C 3.195312 -8.71875 3.265625 -8.554688 3.265625 -8.359375 C 3.265625 -8.160156 3.195312 -8 3.0625 -7.875 C 2.9375 -7.75 2.765625 -7.6875 2.546875 -7.6875 Z M 4.40625 -7.6875 C 4.195312 -7.6875 4.023438 -7.75 3.890625 -7.875 C 3.765625 -8 3.703125 -8.160156 3.703125 -8.359375 C 3.703125 -8.554688 3.765625 -8.71875 3.890625 -8.84375 C 4.023438 -8.96875 4.195312 -9.03125 4.40625 -9.03125 C 4.613281 -9.03125 4.78125 -8.960938 4.90625 -8.828125 C 5.039062 -8.703125 5.109375 -8.546875 5.109375 -8.359375 C 5.109375 -8.160156 5.039062 -8 4.90625 -7.875 C 4.78125 -7.75 4.613281 -7.6875 4.40625 -7.6875 Z M 4.40625 -7.6875 "
           id="path132" />
      </g>
    </g>
  </g>
  <g
     fill="#ffffff"
     fill-opacity="1"
     id="g138">
    <g
       transform="translate(112.581628, 252.27808)"
       id="g137">
      <g
         id="g136">
        <path
           d="M 5.53125 -4.453125 L 5.53125 -7.125 L 6.9375 -7.125 L 6.9375 0 L 5.53125 0 L 5.53125 -3.25 L 2.328125 -3.25 L 2.328125 0 L 0.921875 0 L 0.921875 -7.125 L 2.328125 -7.125 L 2.328125 -4.453125 Z M 5.53125 -4.453125 "
           id="path135" />
      </g>
    </g>
  </g>
  <g
     fill="#ffffff"
     fill-opacity="1"
     id="g141">
    <g
       transform="translate(120.447928, 252.27808)"
       id="g140">
      <g
         id="g139">
        <path
           d="M 2.328125 0 L 0.921875 0 L 0.921875 -7.125 L 2.328125 -7.125 Z M 2.328125 0 "
           id="path138" />
      </g>
    </g>
  </g>
  <g
     fill="#ffffff"
     fill-opacity="1"
     id="g144">
    <g
       transform="translate(123.715391, 252.27808)"
       id="g143">
      <g
         id="g142">
        <path
           d="M 3.46875 0.109375 C 2.863281 0.109375 2.34375 -0.0234375 1.90625 -0.296875 C 1.476562 -0.578125 1.144531 -0.988281 0.90625 -1.53125 C 0.675781 -2.082031 0.5625 -2.757812 0.5625 -3.5625 C 0.5625 -4.375 0.703125 -5.050781 0.984375 -5.59375 C 1.265625 -6.144531 1.65625 -6.554688 2.15625 -6.828125 C 2.664062 -7.097656 3.25 -7.234375 3.90625 -7.234375 C 4.59375 -7.234375 5.175781 -7.101562 5.65625 -6.84375 C 6.132812 -6.59375 6.472656 -6.21875 6.671875 -5.71875 L 5.640625 -5.09375 L 5.515625 -5.09375 C 5.367188 -5.414062 5.160156 -5.648438 4.890625 -5.796875 C 4.628906 -5.941406 4.300781 -6.015625 3.90625 -6.015625 C 3.289062 -6.015625 2.820312 -5.816406 2.5 -5.421875 C 2.175781 -5.035156 2.015625 -4.414062 2.015625 -3.5625 C 2.015625 -2.695312 2.164062 -2.070312 2.46875 -1.6875 C 2.769531 -1.300781 3.21875 -1.109375 3.8125 -1.109375 C 4.332031 -1.109375 4.710938 -1.222656 4.953125 -1.453125 C 5.191406 -1.679688 5.3125 -2.023438 5.3125 -2.484375 L 5.3125 -2.78125 L 3.625 -2.78125 L 3.625 -3.9375 L 6.71875 -3.9375 L 6.71875 0 L 5.375 0 L 5.375 -0.953125 L 5.265625 -0.96875 C 5.117188 -0.625 4.894531 -0.359375 4.59375 -0.171875 C 4.300781 0.015625 3.925781 0.109375 3.46875 0.109375 Z M 3.46875 0.109375 "
           id="path141" />
      </g>
    </g>
  </g>
  <g
     fill="#ffffff"
     fill-opacity="1"
     id="g147">
    <g
       transform="translate(131.152532, 252.27808)"
       id="g146">
      <g
         id="g145">
        <path
           d="M 0.921875 0 L 0.921875 -7.125 L 2.328125 -7.125 L 2.328125 -4.21875 L 2.484375 -4.21875 L 4.875 -7.125 L 6.3125 -7.125 L 6.3125 -7 L 3.6875 -3.765625 L 6.59375 -0.125 L 6.59375 0 L 5 0 L 2.484375 -3.078125 L 2.328125 -3.078125 L 2.328125 0 Z M 0.921875 0 "
           id="path144" />
      </g>
    </g>
  </g>
  <g
     fill="#ffffff"
     fill-opacity="1"
     id="g150">
    <g
       transform="translate(137.741108, 252.27808)"
       id="g149">
      <g
         id="g148">
        <path
           d="M 2.328125 -3.125 L 2.328125 -1.1875 L 5.734375 -1.1875 L 5.734375 0 L 0.921875 0 L 0.921875 -7.125 L 5.65625 -7.125 L 5.65625 -5.953125 L 2.328125 -5.953125 L 2.328125 -4.28125 L 5.234375 -4.28125 L 5.234375 -3.125 Z M 2.328125 -3.125 "
           id="path147" />
      </g>
    </g>
  </g>
  <g
     fill="#ffffff"
     fill-opacity="1"
     id="g153">
    <g
       transform="translate(143.871264, 252.27808)"
       id="g152">
      <g
         id="g151">
        <path
           d="M 2.328125 0 L 0.921875 0 L 0.921875 -7.125 L 2.328125 -7.125 Z M 2.328125 0 "
           id="path150" />
      </g>
    </g>
  </g>
  <g
     fill="#ffffff"
     fill-opacity="1"
     id="g156">
    <g
       transform="translate(147.138727, 252.27808)"
       id="g155">
      <g
         id="g154">
        <path
           d="M 5.71875 -7.125 L 5.71875 -5.9375 L 3.65625 -5.9375 L 3.65625 0 L 2.25 0 L 2.25 -5.9375 L 0.1875 -5.9375 L 0.1875 -7.125 Z M 5.71875 -7.125 "
           id="path153" />
      </g>
    </g>
  </g>
  <g
     fill="#ffffff"
     fill-opacity="1"
     id="g159">
    <g
       transform="translate(21.737879, 46.630995)"
       id="g158">
      <g
         id="g157">
        <path
           d="M 0.304688 0 C 0.976562 -2.472656 1.675781 -4.894531 2.398438 -7.269531 C 3.121094 -9.640625 3.917969 -12.082031 4.792969 -14.59375 C 5.671875 -17.105469 6.53125 -19.402344 7.382812 -21.480469 C 8.230469 -23.5625 9.082031 -25.425781 9.933594 -27.074219 L 15.203125 -27.074219 C 15.824219 -25.859375 16.441406 -24.53125 17.058594 -23.097656 C 17.671875 -21.664062 18.277344 -20.171875 18.867188 -18.617188 C 19.457031 -17.0625 20.027344 -15.476562 20.585938 -13.851562 C 21.144531 -12.226562 21.679688 -10.617188 22.183594 -9.019531 C 22.691406 -7.421875 23.167969 -5.855469 23.613281 -4.328125 C 24.054688 -2.800781 24.460938 -1.355469 24.832031 0 L 19.21875 0 C 18.976562 -0.863281 18.738281 -1.761719 18.503906 -2.691406 C 18.269531 -3.625 18.011719 -4.625 17.734375 -5.6875 L 7.25 -5.6875 C 6.589844 -3.113281 6.09375 -1.21875 5.765625 0 Z M 8.582031 -10.085938 L 16.402344 -10.085938 C 15.664062 -12.46875 14.351562 -16.292969 12.460938 -21.558594 C 12.058594 -20.414062 11.675781 -19.335938 11.320312 -18.324219 C 10.964844 -17.308594 10.628906 -16.335938 10.3125 -15.402344 C 9.996094 -14.46875 9.695312 -13.566406 9.410156 -12.691406 C 9.125 -11.816406 8.847656 -10.945312 8.582031 -10.085938 Z M 8.582031 -10.085938 "
           id="path156" />
      </g>
    </g>
  </g>
  <g
     fill="#ffffff"
     fill-opacity="1"
     id="g162">
    <g
       transform="translate(46.872536, 46.630995)"
       id="g161">
      <g
         id="g160">
        <path
           d="M 13.414062 0.476562 C 11.941406 0.476562 10.578125 0.273438 9.324219 -0.132812 C 8.066406 -0.539062 6.984375 -1.15625 6.070312 -1.988281 C 5.15625 -2.820312 4.441406 -3.859375 3.929688 -5.109375 C 3.414062 -6.359375 3.160156 -7.828125 3.160156 -9.511719 L 3.160156 -27.074219 L 8.695312 -27.074219 L 8.695312 -9.664062 C 8.695312 -8.675781 8.816406 -7.839844 9.058594 -7.152344 C 9.296875 -6.46875 9.628906 -5.914062 10.046875 -5.488281 C 10.464844 -5.0625 10.960938 -4.757812 11.539062 -4.566406 C 12.117188 -4.375 12.742188 -4.28125 13.414062 -4.28125 C 14.46875 -4.28125 15.367188 -4.503906 16.117188 -4.945312 C 16.863281 -5.390625 17.390625 -6.042969 17.695312 -6.898438 C 18 -7.753906 18.152344 -8.675781 18.152344 -9.664062 L 18.152344 -27.074219 L 23.6875 -27.074219 L 23.6875 -9.511719 C 23.6875 -7.828125 23.433594 -6.359375 22.917969 -5.109375 C 22.402344 -3.859375 21.691406 -2.820312 20.777344 -1.988281 C 19.863281 -1.15625 18.78125 -0.539062 17.523438 -0.132812 C 16.269531 0.273438 14.898438 0.476562 13.414062 0.476562 Z M 13.414062 0.476562 "
           id="path159" />
      </g>
    </g>
  </g>
  <g
     fill="#ffffff"
     fill-opacity="1"
     id="g165">
    <g
       transform="translate(73.719621, 46.630995)"
       id="g164">
      <g
         id="g163">
        <path
           d="M 10.085938 0.476562 C 8.511719 0.476562 6.9375 0.328125 5.367188 0.0273438 C 3.792969 -0.269531 2.699219 -0.53125 2.082031 -0.761719 C 1.46875 -0.988281 1.085938 -1.136719 0.933594 -1.199219 L 2.300781 -5.6875 C 2.46875 -5.574219 3.03125 -5.367188 3.996094 -5.0625 C 4.960938 -4.757812 5.894531 -4.523438 6.800781 -4.367188 C 7.710938 -4.207031 8.5625 -4.128906 9.359375 -4.128906 C 10.882812 -4.128906 12.058594 -4.324219 12.882812 -4.710938 C 13.707031 -5.097656 14.199219 -5.554688 14.367188 -6.089844 C 14.53125 -6.621094 14.613281 -7.121094 14.613281 -7.589844 C 14.613281 -8.453125 14.265625 -9.160156 13.574219 -9.714844 C 12.882812 -10.265625 12.039062 -10.722656 11.046875 -11.082031 C 10.050781 -11.445312 9.183594 -11.777344 8.449219 -12.082031 C 8.03125 -12.246094 7.574219 -12.429688 7.078125 -12.632812 C 6.582031 -12.835938 6.089844 -13.078125 5.59375 -13.355469 C 5.097656 -13.636719 4.621094 -13.964844 4.15625 -14.347656 C 3.695312 -14.726562 3.285156 -15.175781 2.929688 -15.6875 C 2.574219 -16.203125 2.289062 -16.789062 2.074219 -17.449219 C 1.859375 -18.105469 1.75 -18.863281 1.75 -19.710938 C 1.75 -20.929688 1.992188 -22.023438 2.472656 -22.992188 C 2.957031 -23.964844 3.632812 -24.785156 4.507812 -25.457031 C 5.382812 -26.128906 6.433594 -26.648438 7.660156 -27.007812 C 8.882812 -27.371094 10.238281 -27.550781 11.71875 -27.550781 C 13.050781 -27.550781 14.347656 -27.445312 15.613281 -27.238281 C 16.875 -27.027344 17.957031 -26.796875 18.855469 -26.542969 L 18.855469 -21.824219 C 18.195312 -22.050781 17.492188 -22.253906 16.742188 -22.421875 C 15.996094 -22.59375 15.191406 -22.742188 14.328125 -22.871094 C 13.464844 -22.996094 12.679688 -23.0625 11.96875 -23.0625 C 10.292969 -23.0625 9.089844 -22.78125 8.351562 -22.222656 C 7.617188 -21.664062 7.25 -20.910156 7.25 -19.960938 C 7.25 -19.171875 7.589844 -18.515625 8.265625 -17.988281 C 8.945312 -17.464844 9.757812 -17.046875 10.703125 -16.742188 C 11.648438 -16.4375 12.480469 -16.160156 13.203125 -15.90625 C 14.246094 -15.511719 15.074219 -15.175781 15.6875 -14.898438 C 16.304688 -14.617188 16.945312 -14.222656 17.609375 -13.707031 C 18.277344 -13.195312 18.832031 -12.597656 19.273438 -11.921875 C 19.71875 -11.242188 20.019531 -10.550781 20.179688 -9.847656 C 20.335938 -9.140625 20.414062 -8.417969 20.414062 -7.667969 C 20.414062 -6.347656 20.191406 -5.183594 19.742188 -4.175781 C 19.289062 -3.167969 18.628906 -2.316406 17.753906 -1.625 C 16.875 -0.933594 15.796875 -0.414062 14.519531 -0.0585938 C 13.238281 0.296875 11.757812 0.476562 10.085938 0.476562 Z M 10.085938 0.476562 "
           id="path162" />
      </g>
    </g>
  </g>
  <g
     fill="#ffffff"
     fill-opacity="1"
     id="g168">
    <g
       transform="translate(95.695797, 46.630995)"
       id="g167">
      <g
         id="g166">
        <path
           d="M 8.371094 0 C 7.914062 -1.230469 7.449219 -2.546875 6.972656 -3.949219 C 6.496094 -5.351562 6.019531 -6.804688 5.535156 -8.316406 C 5.054688 -9.824219 4.574219 -11.367188 4.101562 -12.949219 C 3.625 -14.527344 3.160156 -16.117188 2.710938 -17.714844 C 2.261719 -19.3125 1.832031 -20.898438 1.425781 -22.472656 C 1.019531 -24.042969 0.648438 -25.578125 0.304688 -27.074219 L 6.164062 -27.074219 C 6.671875 -24.804688 7.304688 -22.167969 8.066406 -19.167969 C 8.828125 -16.167969 9.734375 -12.703125 10.789062 -8.769531 L 15.546875 -26.429688 L 20.453125 -26.429688 L 25.25 -8.65625 C 25.820312 -10.597656 26.335938 -12.425781 26.800781 -14.136719 C 27.261719 -15.847656 27.679688 -17.460938 28.054688 -18.96875 C 28.429688 -20.480469 28.757812 -21.90625 29.035156 -23.25 C 29.3125 -24.59375 29.5625 -25.871094 29.777344 -27.074219 L 35.429688 -27.074219 C 34.921875 -24.578125 34.214844 -21.613281 33.308594 -18.191406 C 32.398438 -14.765625 31.445312 -11.523438 30.441406 -8.46875 C 29.441406 -5.410156 28.414062 -2.585938 27.359375 0 L 22.605469 0 L 17.886719 -18.742188 L 13.167969 0 Z M 8.371094 0 "
           id="path165" />
      </g>
    </g>
  </g>
  <g
     fill="#ffffff"
     fill-opacity="1"
     id="g171">
    <g
       transform="translate(131.428488, 46.630995)"
       id="g170">
      <g
         id="g169">
        <path
           d="M 3.386719 0 L 3.386719 -27.074219 L 20.113281 -27.074219 L 20.113281 -22.605469 L 8.921875 -22.605469 L 8.921875 -16.476562 L 18.4375 -16.476562 L 18.4375 -12.007812 L 8.921875 -12.007812 L 8.921875 -4.492188 L 20.777344 -4.492188 L 20.777344 0 Z M 3.386719 0 "
           id="path168" />
      </g>
    </g>
  </g>
  <g
     fill="#ffffff"
     fill-opacity="1"
     id="g174">
    <g
       transform="translate(153.709096, 46.630995)"
       id="g173">
      <g
         id="g172">
        <path
           d="M 3.386719 -27.074219 L 8.921875 -27.074219 L 8.921875 0 L 3.386719 0 Z M 3.386719 -27.074219 "
           id="path171" />
      </g>
    </g>
  </g>
  <g
     fill="#ffffff"
     fill-opacity="1"
     id="g177">
    <g
       transform="translate(166.019559, 46.630995)"
       id="g176">
      <g
         id="g175">
        <path
           d="M 10.085938 0.476562 C 8.511719 0.476562 6.9375 0.328125 5.367188 0.0273438 C 3.792969 -0.269531 2.699219 -0.53125 2.082031 -0.761719 C 1.46875 -0.988281 1.085938 -1.136719 0.933594 -1.199219 L 2.300781 -5.6875 C 2.46875 -5.574219 3.03125 -5.367188 3.996094 -5.0625 C 4.960938 -4.757812 5.894531 -4.523438 6.800781 -4.367188 C 7.710938 -4.207031 8.5625 -4.128906 9.359375 -4.128906 C 10.882812 -4.128906 12.058594 -4.324219 12.882812 -4.710938 C 13.707031 -5.097656 14.199219 -5.554688 14.367188 -6.089844 C 14.53125 -6.621094 14.613281 -7.121094 14.613281 -7.589844 C 14.613281 -8.453125 14.265625 -9.160156 13.574219 -9.714844 C 12.882812 -10.265625 12.039062 -10.722656 11.046875 -11.082031 C 10.050781 -11.445312 9.183594 -11.777344 8.449219 -12.082031 C 8.03125 -12.246094 7.574219 -12.429688 7.078125 -12.632812 C 6.582031 -12.835938 6.089844 -13.078125 5.59375 -13.355469 C 5.097656 -13.636719 4.621094 -13.964844 4.15625 -14.347656 C 3.695312 -14.726562 3.285156 -15.175781 2.929688 -15.6875 C 2.574219 -16.203125 2.289062 -16.789062 2.074219 -17.449219 C 1.859375 -18.105469 1.75 -18.863281 1.75 -19.710938 C 1.75 -20.929688 1.992188 -22.023438 2.472656 -22.992188 C 2.957031 -23.964844 3.632812 -24.785156 4.507812 -25.457031 C 5.382812 -26.128906 6.433594 -26.648438 7.660156 -27.007812 C 8.882812 -27.371094 10.238281 -27.550781 11.71875 -27.550781 C 13.050781 -27.550781 14.347656 -27.445312 15.613281 -27.238281 C 16.875 -27.027344 17.957031 -26.796875 18.855469 -26.542969 L 18.855469 -21.824219 C 18.195312 -22.050781 17.492188 -22.253906 16.742188 -22.421875 C 15.996094 -22.59375 15.191406 -22.742188 14.328125 -22.871094 C 13.464844 -22.996094 12.679688 -23.0625 11.96875 -23.0625 C 10.292969 -23.0625 9.089844 -22.78125 8.351562 -22.222656 C 7.617188 -21.664062 7.25 -20.910156 7.25 -19.960938 C 7.25 -19.171875 7.589844 -18.515625 8.265625 -17.988281 C 8.945312 -17.464844 9.757812 -17.046875 10.703125 -16.742188 C 11.648438 -16.4375 12.480469 -16.160156 13.203125 -15.90625 C 14.246094 -15.511719 15.074219 -15.175781 15.6875 -14.898438 C 16.304688 -14.617188 16.945312 -14.222656 17.609375 -13.707031 C 18.277344 -13.195312 18.832031 -12.597656 19.273438 -11.921875 C 19.71875 -11.242188 20.019531 -10.550781 20.179688 -9.847656 C 20.335938 -9.140625 20.414062 -8.417969 20.414062 -7.667969 C 20.414062 -6.347656 20.191406 -5.183594 19.742188 -4.175781 C 19.289062 -3.167969 18.628906 -2.316406 17.753906 -1.625 C 16.875 -0.933594 15.796875 -0.414062 14.519531 -0.0585938 C 13.238281 0.296875 11.757812 0.476562 10.085938 0.476562 Z M 10.085938 0.476562 "
           id="path174" />
      </g>
    </g>
  </g>
  <g
     clip-path="url(#f5b80951f0)"
     id="g180">
    <g
       clip-path="url(#1da94c035a)"
       id="g179">
      <g
         clip-path="url(#03a7b418fb)"
         id="g178">
        <path
           fill="#ffffff"
           d="M 1.996094 100.5 C 2.011719 100.480469 2.027344 100.457031 2.023438 100.425781 C 2.011719 100.390625 1.96875 100.359375 1.929688 100.335938 C 1.171875 99.894531 0.453125 99.386719 -0.21875 98.824219 C -0.285156 98.765625 -0.359375 98.707031 -0.441406 98.691406 C -0.519531 98.675781 -1.074219 100.007812 -1.339844 100.632812 C -1.375 100.714844 -1.414062 100.800781 -1.398438 100.898438 C -1.378906 101.066406 -1.222656 101.222656 -1.074219 101.347656 C -0.671875 101.6875 -0.226562 101.972656 0.242188 102.191406 C 0.300781 102.21875 0.367188 102.246094 0.425781 102.246094 C 0.496094 102.238281 0.542969 102.195312 0.582031 102.152344 C 1.089844 101.632812 1.5625 101.078125 1.996094 100.5 Z M 2.546875 99.730469 C 1.65625 99.21875 0.804688 98.632812 0.0546875 98 C 0.0078125 97.960938 -0.015625 97.894531 0.0078125 97.84375 C 0.75 96.351562 1.351562 94.636719 2.511719 93.375 C 3.226562 92.59375 3.980469 91.828125 4.851562 91.21875 C 5.613281 90.691406 6.757812 89.949219 7.730469 90.257812 C 8.929688 90.640625 7.742188 93.519531 7.292969 94.347656 C 6.664062 95.515625 5.972656 96.609375 4.894531 97.421875 C 4.773438 97.511719 4.65625 97.601562 4.542969 97.703125 C 4.121094 98.070312 3.742188 98.511719 3.359375 98.925781 C 3.152344 99.148438 2.898438 99.484375 2.710938 99.722656 C 2.675781 99.769531 2.601562 99.761719 2.546875 99.730469 "
           fill-opacity="1"
           fill-rule="nonzero"
           id="path177" />
      </g>
    </g>
  </g>
  <g
     clip-path="url(#4f416ef5c7)"
     id="g183">
    <g
       clip-path="url(#5efdbdd6c5)"
       id="g182">
      <g
         clip-path="url(#36fe7b993f)"
         id="g181">
        <path
           fill="#ffffff"
           d="M -5.609375 115.523438 C -5.652344 115.566406 -5.691406 115.617188 -5.691406 115.6875 C -5.691406 115.746094 -5.660156 115.808594 -5.628906 115.867188 C -5.375 116.320312 -5.0625 116.746094 -4.699219 117.121094 C -4.5625 117.261719 -4.398438 117.40625 -4.226562 117.417969 C -4.128906 117.421875 -4.046875 117.382812 -3.964844 117.339844 C -3.359375 117.03125 -2.066406 116.390625 -2.089844 116.308594 C -2.109375 116.230469 -2.175781 116.164062 -2.234375 116.101562 C -2.839844 115.46875 -3.398438 114.78125 -3.890625 114.058594 C -3.917969 114.019531 -3.949219 113.976562 -3.988281 113.972656 C -4.015625 113.96875 -4.039062 113.984375 -4.058594 114.003906 C -4.605469 114.472656 -5.125 114.980469 -5.609375 115.523438 Z M -3.332031 113.238281 C -3.105469 113.03125 -2.789062 112.757812 -2.578125 112.535156 C -2.191406 112.125 -1.777344 111.71875 -1.4375 111.273438 C -1.347656 111.152344 -1.265625 111.027344 -1.183594 110.902344 C -0.445312 109.773438 0.601562 109.007812 1.71875 108.300781 C 2.515625 107.796875 5.308594 106.417969 5.769531 107.585938 C 6.148438 108.535156 5.484375 109.726562 5.007812 110.523438 C 4.457031 111.4375 3.746094 112.238281 3.015625 113.007812 C 1.835938 114.25 0.167969 114.964844 -1.273438 115.804688 C -1.320312 115.832031 -1.386719 115.8125 -1.433594 115.769531 C -2.113281 115.0625 -2.757812 114.253906 -3.328125 113.398438 C -3.363281 113.347656 -3.375 113.273438 -3.332031 113.238281 "
           fill-opacity="1"
           fill-rule="nonzero"
           id="path180" />
      </g>
    </g>
  </g>
  <g
     clip-path="url(#e97cc6f8f4)"
     id="g186">
    <g
       clip-path="url(#b2a969ca63)"
       id="g185">
      <g
         clip-path="url(#380b06054b)"
         id="g184">
        <path
           fill="#ffffff"
           d="M 10.542969 98.035156 C 10.5 98.082031 10.460938 98.128906 10.460938 98.199219 C 10.460938 98.257812 10.492188 98.320312 10.523438 98.378906 C 10.773438 98.832031 11.089844 99.257812 11.453125 99.632812 C 11.589844 99.777344 11.753906 99.921875 11.925781 99.929688 C 12.023438 99.9375 12.105469 99.894531 12.1875 99.855469 C 12.792969 99.542969 14.082031 98.902344 14.0625 98.824219 C 14.042969 98.742188 13.976562 98.675781 13.917969 98.613281 C 13.308594 97.980469 12.753906 97.292969 12.261719 96.570312 C 12.234375 96.53125 12.203125 96.492188 12.164062 96.484375 C 12.136719 96.480469 12.113281 96.496094 12.09375 96.515625 C 11.546875 96.988281 11.027344 97.496094 10.542969 98.035156 Z M 12.820312 95.75 C 13.042969 95.542969 13.363281 95.269531 13.574219 95.046875 C 13.960938 94.640625 14.371094 94.230469 14.714844 93.785156 C 14.804688 93.664062 14.886719 93.542969 14.96875 93.417969 C 15.707031 92.285156 16.75 91.519531 17.871094 90.8125 C 18.667969 90.308594 21.460938 88.929688 21.921875 90.097656 C 22.300781 91.046875 21.636719 92.242188 21.160156 93.035156 C 20.609375 93.949219 19.898438 94.75 19.167969 95.519531 C 17.988281 96.761719 16.316406 97.480469 14.878906 98.316406 C 14.832031 98.34375 14.761719 98.324219 14.71875 98.28125 C 14.039062 97.574219 13.394531 96.765625 12.820312 95.910156 C 12.789062 95.859375 12.777344 95.789062 12.820312 95.75 "
           fill-opacity="1"
           fill-rule="nonzero"
           id="path183" />
      </g>
    </g>
  </g>
  <g
     clip-path="url(#0787b72416)"
     id="g189">
    <g
       clip-path="url(#2f803e2cf7)"
       id="g188">
      <g
         clip-path="url(#21b76ed167)"
         id="g187">
        <path
           fill="#ffffff"
           d="M 19.777344 82.140625 C 19.792969 82.117188 19.808594 82.09375 19.800781 82.066406 C 19.792969 82.027344 19.75 81.996094 19.710938 81.976562 C 18.953125 81.53125 18.234375 81.023438 17.5625 80.460938 C 17.496094 80.40625 17.421875 80.34375 17.339844 80.332031 C 17.261719 80.316406 16.707031 81.644531 16.441406 82.273438 C 16.40625 82.355469 16.367188 82.441406 16.382812 82.539062 C 16.402344 82.707031 16.558594 82.859375 16.707031 82.988281 C 17.109375 83.324219 17.554688 83.613281 18.023438 83.832031 C 18.082031 83.859375 18.148438 83.886719 18.207031 83.882812 C 18.277344 83.878906 18.324219 83.832031 18.363281 83.789062 C 18.871094 83.269531 19.34375 82.71875 19.777344 82.140625 Z M 20.332031 81.371094 C 19.4375 80.859375 18.585938 80.273438 17.835938 79.640625 C 17.789062 79.597656 17.765625 79.53125 17.789062 79.480469 C 18.53125 77.988281 19.132812 76.273438 20.292969 75.011719 C 21.007812 74.230469 21.761719 73.46875 22.632812 72.859375 C 23.394531 72.328125 24.539062 71.585938 25.511719 71.898438 C 26.710938 72.28125 25.523438 75.160156 25.074219 75.988281 C 24.445312 77.152344 23.753906 78.246094 22.675781 79.058594 C 22.554688 79.152344 22.4375 79.242188 22.324219 79.339844 C 21.902344 79.710938 21.523438 80.152344 21.140625 80.5625 C 20.933594 80.789062 20.679688 81.125 20.492188 81.363281 C 20.457031 81.40625 20.382812 81.402344 20.332031 81.371094 "
           fill-opacity="1"
           fill-rule="nonzero"
           id="path186" />
      </g>
    </g>
  </g>
  <g
     clip-path="url(#825a9c72ab)"
     id="g193">
    <g
       clip-path="url(#ebab6d7dee)"
       id="g192">
      <g
         clip-path="url(#c920cc5832)"
         id="g191">
        <g
           clip-path="url(#5c7478dfef)"
           id="g190">
          <path
             fill="#ffffff"
             d="M 27.949219 79.320312 C 27.910156 79.363281 27.867188 79.414062 27.867188 79.484375 C 27.867188 79.542969 27.898438 79.605469 27.933594 79.664062 C 28.183594 80.117188 28.5 80.542969 28.863281 80.917969 C 29 81.058594 29.164062 81.207031 29.332031 81.214844 C 29.429688 81.21875 29.515625 81.179688 29.59375 81.136719 C 30.203125 80.828125 31.492188 80.1875 31.472656 80.105469 C 31.449219 80.027344 31.386719 79.960938 31.324219 79.894531 C 30.71875 79.265625 30.160156 78.578125 29.667969 77.855469 C 29.644531 77.816406 29.613281 77.773438 29.574219 77.769531 C 29.542969 77.765625 29.519531 77.78125 29.5 77.800781 C 28.953125 78.269531 28.433594 78.777344 27.949219 79.320312 Z M 30.226562 77.035156 C 30.453125 76.828125 30.769531 76.554688 30.980469 76.332031 C 31.367188 75.921875 31.78125 75.515625 32.121094 75.070312 C 32.210938 74.949219 32.296875 74.824219 32.375 74.699219 C 33.113281 73.570312 34.160156 72.804688 35.28125 72.097656 C 36.078125 71.59375 38.867188 70.214844 39.332031 71.382812 C 39.707031 72.332031 39.042969 73.527344 38.566406 74.320312 C 38.019531 75.234375 37.308594 76.035156 36.578125 76.804688 C 35.398438 78.046875 33.726562 78.761719 32.289062 79.601562 C 32.238281 79.628906 32.171875 79.609375 32.128906 79.566406 C 31.445312 78.859375 30.800781 78.050781 30.230469 77.195312 C 30.195312 77.144531 30.1875 77.070312 30.226562 77.035156 "
             fill-opacity="1"
             fill-rule="nonzero"
             id="path189" />
        </g>
      </g>
    </g>
  </g>
</svg>
